<svg xmlns="http://www.w3.org/2000/svg" viewBox="0 0 165.38 35"><defs><style>.a{fill:#4670e8;}</style></defs><title>surgtime-logo</title><path class="a" d="M27.07,0a11.17,11.17,0,0,0-7.93,3.28A11.21,11.21,0,0,0,3.28,19.14L19.14,35,35,19.14A11.21,11.21,0,0,0,27.07,0ZM26,23.08A9.63,9.63,0,1,1,26,9.46,9.63,9.63,0,0,1,26,23.08ZM30.81,9a2,2,0,1,1,2-2A2,2,0,0,1,30.81,9ZM25.35,14.5a6.46,6.46,0,1,1-3.85-4.24,2.91,2.91,0,1,0,3.85,4.24Zm124.79,3.19c0,2.63,0,5.26,0,7.88,0,.16,0,.32,0,.47a1.67,1.67,0,0,1-1.69,1.66,1.69,1.69,0,0,1-1.8-1.6c0-.23,0-.46,0-.68V18.59a4.76,4.76,0,0,0-.33-1.9,2.57,2.57,0,0,0-2.69-1.6,2.75,2.75,0,0,0-2.7,2.69c0,.36-.05.73-.05,1.1v6.46a7.45,7.45,0,0,1-.08.94,1.73,1.73,0,0,1-3.39.09,4.13,4.13,0,0,1-.09-.93c0-2.22,0-4.45,0-6.67a6.85,6.85,0,0,0-.22-1.81,2.59,2.59,0,0,0-2.92-1.86,2.83,2.83,0,0,0-2.59,2.76c0,.33,0,.66,0,1q0,3.33,0,6.67a3.64,3.64,0,0,1-.11.93,1.74,1.74,0,0,1-3.39-.27,6.79,6.79,0,0,1,0-.78v-11a7,7,0,0,1,0-.79,1.62,1.62,0,0,1,1.51-1.49,1.69,1.69,0,0,1,1.82,1c0,.08,0,.19.1.23s.23.09.28.05.33-.32.51-.46a5.3,5.3,0,0,1,4-1,4.65,4.65,0,0,1,3.31,1.72c.2.25.34.2.54,0a5.69,5.69,0,0,1,2.71-1.53,6.41,6.41,0,0,1,5.06.64,4.66,4.66,0,0,1,2.11,3A9.58,9.58,0,0,1,150.14,17.69ZM102.83,13a1.74,1.74,0,0,0-3.11,0c-.08.18-.13.36-.21.6a1.45,1.45,0,0,1-.2-.15,4.42,4.42,0,0,0-3.1-1.57,5.24,5.24,0,0,0-4.53,1.45,6,6,0,0,0-1.59,3.25A14.19,14.19,0,0,0,90.24,23a5.07,5.07,0,0,0,5,4.13,4.67,4.67,0,0,0,4-1.38c0-.06.14-.08.21-.13s.09.15.09.23a17.31,17.31,0,0,1-.08,2,2.67,2.67,0,0,1-2,2.38,4.68,4.68,0,0,1-3.51-.41c-.35-.19-.69-.41-1.06-.57a1.56,1.56,0,0,0-2.1.73,1.7,1.7,0,0,0,.37,1.89,4.65,4.65,0,0,0,.83.63,7.43,7.43,0,0,0,3.06,1,8.17,8.17,0,0,0,5.09-.89,5.73,5.73,0,0,0,2.85-4.75A38.49,38.49,0,0,0,103,24q0-4.85,0-9.71A3.66,3.66,0,0,0,102.83,13Zm-3.78,9.2A2.59,2.59,0,0,1,96.46,24a2.54,2.54,0,0,1-2.56-1.71,8,8,0,0,1-.42-3.72,5.46,5.46,0,0,1,.62-2.2,2.28,2.28,0,0,1,1.73-1.22,2.7,2.7,0,0,1,3.4,2.28c.16.7.21,1.41.31,2.12A8.76,8.76,0,0,1,99.05,22.23Zm-36.59-2.1a6.76,6.76,0,0,1-.76,4.41,6.2,6.2,0,0,1-3.65,2.81,12.29,12.29,0,0,1-3.82.55,12.61,12.61,0,0,1-6.38-1.84,2,2,0,0,1-1.09-1.84,1.63,1.63,0,0,1,2-1.55,5.25,5.25,0,0,1,1.35.55,9.49,9.49,0,0,0,3.8,1.26,5.58,5.58,0,0,0,3.68-.74A2.83,2.83,0,0,0,58.37,20a2.63,2.63,0,0,0-1.63-1.14c-.88-.23-1.78-.39-2.67-.55a14.35,14.35,0,0,1-3.3-.81,5.37,5.37,0,0,1-3.52-5.23,6,6,0,0,1,2.38-5.23,6.44,6.44,0,0,1,2.75-1.22,11.67,11.67,0,0,1,7.7,1.09,2,2,0,0,1,1.15,1.29,1.61,1.61,0,0,1-1.45,2,3.26,3.26,0,0,1-1.47-.33A9.15,9.15,0,0,0,54.83,9a4.58,4.58,0,0,0-2.39.44A2.6,2.6,0,0,0,51,11.85a2.32,2.32,0,0,0,1.41,2.21,9.2,9.2,0,0,0,2.77.76,14.18,14.18,0,0,1,4.14,1.06A5.25,5.25,0,0,1,62.46,20.13Zm93.57.92h4c1.34,0,2.69,0,4,0,.83,0,1.3-.4,1.31-1.18a9.77,9.77,0,0,0-.82-4.55,5.65,5.65,0,0,0-3.16-2.91,7.74,7.74,0,0,0-4.13-.38,6,6,0,0,0-5,4.66,13.42,13.42,0,0,0,0,6.3,6,6,0,0,0,2.3,3.64,6.39,6.39,0,0,0,3,1.17,8.53,8.53,0,0,0,6.5-1.57,3.18,3.18,0,0,0,.66-.66,1.61,1.61,0,0,0,0-1.83,1.45,1.45,0,0,0-1.69-.46,5.53,5.53,0,0,0-1,.54,5.28,5.28,0,0,1-2.65.89,3.41,3.41,0,0,1-3.88-3.06C155.45,21.1,155.49,21.05,156,21.05Zm-.52-3.32a2.83,2.83,0,0,1,2.8-2.78,3,3,0,0,1,3,1.3,3,3,0,0,1,.48,1.64c0,.41,0,.45-.44.46h-5.31C155.5,18.35,155.46,18.3,155.51,17.73ZM76.76,25.51a4.42,4.42,0,0,1,0,.63,1.63,1.63,0,0,1-1.12,1.44,1.7,1.7,0,0,1-1.89-.4,2.62,2.62,0,0,1-.41-.66c-.17-.32-.17-.34-.4-.08A4.22,4.22,0,0,1,71,27.63,5.17,5.17,0,0,1,64.53,25,6.94,6.94,0,0,1,64,22V16.21c0-.7,0-1.4,0-2.1a3.22,3.22,0,0,1,.17-1,1.64,1.64,0,0,1,1.74-1,1.55,1.55,0,0,1,1.5,1.24,4.05,4.05,0,0,1,.12,1c0,2.26,0,4.52,0,6.77a6.17,6.17,0,0,0,.21,1.71,2.47,2.47,0,0,0,2.8,1.84,2.6,2.6,0,0,0,2.54-2.36A8.82,8.82,0,0,0,73.23,21c0-2.25,0-4.51,0-6.77a3.17,3.17,0,0,1,.11-1,1.76,1.76,0,0,1,3.39.42c0,.21,0,.42,0,.63V25.51ZM119.93,7.82a1.62,1.62,0,0,1-1.43,1.45,9.21,9.21,0,0,1-1,0h-3.26c-.54,0-.61.07-.61.61v4q0,5.7,0,11.4a3.72,3.72,0,0,1-.17,1.24,1.75,1.75,0,0,1-1.94,1.09A1.82,1.82,0,0,1,109.87,26a5.3,5.3,0,0,1,0-.69V10.07c0-.77,0-.77-.8-.77h-3.52a3.71,3.71,0,0,1-.88-.1,1.54,1.54,0,0,1-1.12-1.73A1.61,1.61,0,0,1,105,6a3.76,3.76,0,0,1,.58,0h12.19a3.5,3.5,0,0,1,1,.15A1.56,1.56,0,0,1,119.93,7.82Zm-30.46,6a1.59,1.59,0,0,1-1.13,1.6,3.18,3.18,0,0,1-1.23,0c-.47-.05-.92-.23-1.39-.27a2.48,2.48,0,0,0-2.76,2,6,6,0,0,0-.22,1.45c0,2.29,0,4.58,0,6.87a4.12,4.12,0,0,1-.11,1,1.64,1.64,0,0,1-1.77,1.24,1.67,1.67,0,0,1-1.61-1.46,5.92,5.92,0,0,1,0-.84v-11a6.79,6.79,0,0,1,0-.78,1.65,1.65,0,0,1,1.61-1.51,1.66,1.66,0,0,1,1.78,1.22c.05.16.11.32.17.48A12.31,12.31,0,0,1,84,12.69a4.54,4.54,0,0,1,4.35-.46A1.66,1.66,0,0,1,89.47,13.85Zm35.72-.09a4.52,4.52,0,0,1,0,.52q0,5.63,0,11.23a3.59,3.59,0,0,1-.11.93,1.73,1.73,0,0,1-3.38-.23,5.24,5.24,0,0,1,0-.79v-11c0-.21,0-.42,0-.63a1.66,1.66,0,0,1,1.71-1.68A1.7,1.7,0,0,1,125.19,13.76Zm.36-6a2.13,2.13,0,0,1-2.16,2.12,2.07,2.07,0,0,1-2.06-2.13,2.07,2.07,0,0,1,2.11-2.09A2.12,2.12,0,0,1,125.55,7.79Z"/></svg>